<?xml version="1.0" encoding="utf-8" ?>
<svg baseProfile="full" height="1024" version="1.1" width="1024" xmlns="http://www.w3.org/2000/svg" xmlns:ev="http://www.w3.org/2001/xml-events" xmlns:xlink="http://www.w3.org/1999/xlink"><defs /><path d="M 740,616 L 739,617 L 737,617 L 734,620 L 734,625 L 780,671 L 779,672 L 200,672 L 199,673 L 197,673 L 196,674 L 195,674 L 190,679 L 190,680 L 189,681 L 189,683 L 188,684 L 188,692 L 189,693 L 189,695 L 190,696 L 190,697 L 195,702 L 196,702 L 197,703 L 199,703 L 200,704 L 779,704 L 780,705 L 779,706 L 778,706 L 735,749 L 735,750 L 734,751 L 734,753 L 735,754 L 735,755 L 737,757 L 738,757 L 739,758 L 766,758 L 767,757 L 770,757 L 771,756 L 772,756 L 773,755 L 774,755 L 836,693 L 836,692 L 837,691 L 837,684 L 836,683 L 836,682 L 773,619 L 772,619 L 771,618 L 769,618 L 768,617 L 763,617 L 762,616 Z" fill="currentColor" /><path d="M 227,277 L 226,278 L 223,278 L 222,279 L 219,279 L 218,280 L 216,280 L 215,281 L 212,281 L 211,282 L 209,282 L 208,283 L 205,283 L 204,284 L 202,284 L 201,285 L 199,285 L 197,287 L 197,288 L 196,289 L 196,292 L 197,293 L 197,295 L 204,302 L 205,302 L 207,304 L 208,304 L 210,306 L 211,306 L 214,309 L 215,309 L 217,311 L 218,311 L 221,314 L 222,314 L 224,316 L 225,316 L 227,318 L 228,318 L 231,321 L 232,321 L 235,324 L 236,324 L 238,326 L 239,326 L 241,328 L 242,328 L 245,331 L 246,331 L 248,333 L 249,333 L 252,336 L 253,336 L 255,338 L 256,338 L 259,341 L 260,341 L 262,343 L 263,343 L 265,345 L 266,345 L 269,348 L 270,348 L 272,350 L 273,350 L 275,352 L 276,352 L 279,355 L 280,355 L 282,357 L 283,357 L 286,360 L 287,360 L 289,362 L 290,362 L 293,365 L 294,365 L 296,367 L 297,367 L 299,369 L 300,369 L 303,372 L 304,372 L 306,374 L 307,374 L 310,377 L 311,377 L 313,379 L 314,379 L 317,382 L 318,382 L 320,384 L 321,384 L 324,387 L 325,387 L 327,389 L 328,389 L 331,392 L 332,392 L 334,394 L 335,394 L 337,396 L 338,396 L 341,399 L 342,399 L 344,401 L 345,401 L 348,404 L 349,404 L 351,406 L 352,406 L 355,409 L 356,409 L 358,411 L 359,411 L 362,414 L 363,414 L 365,416 L 366,416 L 369,419 L 370,419 L 372,421 L 373,421 L 374,422 L 374,423 L 373,424 L 372,424 L 369,427 L 368,427 L 367,428 L 366,428 L 365,429 L 364,429 L 363,430 L 362,430 L 361,431 L 359,431 L 358,432 L 357,432 L 356,433 L 354,433 L 353,434 L 351,434 L 350,435 L 348,435 L 347,436 L 345,436 L 344,437 L 343,437 L 342,438 L 340,438 L 339,439 L 337,439 L 336,440 L 335,440 L 334,441 L 332,441 L 331,442 L 329,442 L 328,443 L 327,443 L 326,444 L 324,444 L 323,445 L 321,445 L 320,446 L 318,446 L 317,447 L 316,447 L 315,448 L 313,448 L 312,449 L 310,449 L 309,450 L 308,450 L 307,451 L 305,451 L 304,452 L 302,452 L 301,453 L 299,453 L 298,454 L 296,454 L 295,455 L 293,455 L 292,456 L 290,456 L 289,457 L 276,457 L 275,456 L 274,456 L 273,455 L 272,455 L 271,454 L 270,454 L 269,453 L 268,453 L 267,452 L 266,452 L 265,451 L 264,451 L 263,450 L 262,450 L 260,448 L 259,448 L 258,447 L 257,447 L 256,446 L 255,446 L 254,445 L 253,445 L 251,443 L 250,443 L 249,442 L 248,442 L 247,441 L 246,441 L 245,440 L 244,440 L 242,438 L 241,438 L 240,437 L 239,437 L 238,436 L 237,436 L 236,435 L 235,435 L 234,434 L 233,434 L 231,432 L 230,432 L 229,431 L 228,431 L 227,430 L 226,430 L 225,429 L 224,429 L 223,428 L 222,428 L 220,426 L 219,426 L 218,425 L 217,425 L 216,424 L 215,424 L 214,423 L 213,423 L 211,421 L 210,421 L 209,420 L 208,420 L 207,419 L 206,419 L 205,418 L 204,418 L 202,416 L 201,416 L 200,415 L 199,415 L 198,414 L 197,414 L 196,413 L 195,413 L 193,411 L 192,411 L 191,410 L 190,410 L 189,409 L 188,409 L 187,408 L 186,408 L 185,407 L 184,407 L 182,405 L 181,405 L 180,404 L 179,404 L 178,403 L 177,403 L 176,402 L 175,402 L 174,401 L 173,401 L 171,399 L 170,399 L 169,398 L 168,398 L 167,397 L 166,397 L 165,396 L 164,396 L 162,394 L 161,394 L 160,393 L 159,393 L 158,392 L 157,392 L 156,391 L 155,391 L 153,389 L 152,389 L 151,388 L 150,388 L 149,387 L 148,387 L 147,386 L 146,386 L 145,385 L 144,385 L 143,384 L 131,384 L 130,385 L 128,385 L 127,386 L 124,386 L 123,387 L 121,387 L 120,388 L 118,388 L 117,389 L 114,389 L 113,390 L 112,390 L 111,391 L 110,391 L 109,392 L 109,393 L 108,394 L 108,400 L 109,401 L 109,402 L 110,403 L 110,404 L 112,406 L 112,407 L 115,410 L 115,411 L 118,414 L 118,415 L 120,417 L 120,418 L 123,421 L 123,422 L 126,425 L 126,426 L 128,428 L 128,429 L 131,432 L 131,433 L 134,436 L 134,437 L 136,439 L 136,440 L 139,443 L 139,444 L 142,447 L 142,448 L 144,450 L 144,451 L 147,454 L 147,455 L 150,458 L 150,459 L 153,462 L 153,463 L 155,465 L 155,466 L 158,469 L 158,470 L 160,472 L 160,473 L 163,476 L 163,477 L 166,480 L 166,481 L 169,484 L 169,485 L 171,487 L 171,488 L 174,491 L 174,492 L 176,494 L 176,495 L 179,498 L 179,499 L 182,502 L 182,504 L 181,505 L 181,506 L 173,514 L 172,514 L 169,517 L 168,517 L 165,520 L 164,520 L 162,522 L 161,522 L 155,528 L 155,530 L 154,531 L 154,539 L 155,540 L 155,542 L 156,543 L 156,544 L 161,549 L 163,549 L 164,550 L 168,550 L 169,551 L 176,551 L 177,552 L 183,552 L 184,553 L 191,553 L 192,554 L 199,554 L 200,555 L 207,555 L 208,556 L 216,556 L 217,557 L 226,557 L 227,558 L 239,558 L 240,559 L 254,559 L 255,560 L 312,560 L 313,559 L 326,559 L 327,558 L 337,558 L 338,557 L 346,557 L 347,556 L 354,556 L 355,555 L 362,555 L 363,554 L 368,554 L 369,553 L 374,553 L 375,552 L 380,552 L 381,551 L 386,551 L 387,550 L 391,550 L 392,549 L 396,549 L 397,548 L 401,548 L 402,547 L 405,547 L 406,546 L 409,546 L 410,545 L 413,545 L 414,544 L 417,544 L 418,543 L 421,543 L 422,542 L 424,542 L 425,541 L 426,541 L 427,540 L 428,540 L 429,539 L 430,539 L 436,533 L 436,532 L 440,528 L 440,527 L 446,521 L 446,520 L 452,514 L 452,513 L 458,507 L 458,506 L 465,499 L 465,498 L 473,490 L 473,489 L 480,482 L 480,481 L 489,472 L 489,471 L 506,454 L 507,454 L 509,452 L 510,452 L 511,451 L 512,451 L 513,450 L 514,450 L 515,449 L 516,449 L 517,448 L 518,448 L 519,447 L 521,447 L 522,446 L 523,446 L 524,445 L 526,445 L 527,444 L 529,444 L 530,443 L 532,443 L 533,442 L 535,442 L 536,441 L 538,441 L 539,440 L 542,440 L 543,439 L 545,439 L 546,438 L 548,438 L 549,437 L 551,437 L 552,436 L 554,436 L 555,435 L 557,435 L 558,434 L 561,434 L 562,433 L 564,433 L 565,432 L 567,432 L 568,431 L 570,431 L 571,430 L 573,430 L 574,429 L 577,429 L 578,428 L 580,428 L 581,427 L 583,427 L 584,426 L 586,426 L 587,425 L 590,425 L 591,424 L 594,424 L 595,423 L 597,423 L 598,422 L 603,422 L 604,421 L 615,421 L 616,422 L 617,422 L 620,425 L 620,428 L 616,432 L 615,432 L 607,440 L 606,440 L 598,448 L 597,448 L 590,455 L 589,455 L 581,463 L 580,463 L 571,472 L 570,472 L 563,479 L 562,479 L 554,487 L 553,487 L 544,496 L 543,496 L 534,505 L 533,505 L 524,514 L 523,514 L 514,523 L 513,523 L 503,533 L 502,533 L 493,542 L 492,542 L 482,552 L 481,552 L 471,562 L 470,562 L 465,567 L 464,567 L 462,569 L 461,569 L 460,570 L 459,570 L 458,571 L 457,571 L 456,572 L 455,572 L 454,573 L 453,573 L 452,574 L 451,574 L 450,575 L 449,575 L 448,576 L 447,576 L 446,577 L 445,577 L 444,578 L 442,578 L 441,579 L 440,579 L 439,580 L 437,580 L 436,581 L 434,581 L 433,582 L 431,582 L 430,583 L 428,583 L 427,584 L 425,584 L 424,585 L 422,585 L 421,586 L 420,586 L 418,588 L 418,589 L 417,590 L 417,594 L 418,595 L 418,596 L 421,599 L 422,599 L 423,600 L 425,600 L 426,601 L 432,601 L 433,600 L 437,600 L 438,599 L 441,599 L 442,598 L 444,598 L 445,597 L 447,597 L 448,596 L 450,596 L 451,595 L 453,595 L 454,594 L 455,594 L 456,593 L 458,593 L 459,592 L 460,592 L 461,591 L 463,591 L 464,590 L 465,590 L 466,589 L 467,589 L 468,588 L 469,588 L 470,587 L 471,587 L 472,586 L 473,586 L 474,585 L 475,585 L 476,584 L 477,584 L 478,583 L 479,583 L 480,582 L 481,582 L 483,580 L 484,580 L 485,579 L 486,579 L 488,577 L 489,577 L 491,575 L 492,575 L 495,572 L 496,572 L 500,568 L 501,568 L 504,565 L 505,565 L 506,564 L 512,564 L 513,565 L 527,565 L 528,564 L 531,564 L 532,563 L 536,563 L 537,562 L 539,562 L 540,561 L 543,561 L 544,560 L 547,560 L 548,559 L 551,559 L 552,558 L 554,558 L 555,557 L 558,557 L 559,556 L 561,556 L 562,555 L 565,555 L 566,554 L 568,554 L 569,553 L 572,553 L 573,552 L 576,552 L 577,551 L 579,551 L 580,550 L 583,550 L 584,549 L 586,549 L 587,548 L 590,548 L 591,547 L 593,547 L 594,546 L 597,546 L 598,545 L 600,545 L 601,544 L 603,544 L 604,543 L 606,543 L 607,542 L 609,542 L 610,541 L 612,541 L 613,540 L 614,540 L 615,539 L 616,539 L 617,538 L 618,538 L 619,537 L 620,537 L 621,536 L 622,536 L 623,535 L 624,535 L 626,533 L 627,533 L 629,531 L 630,531 L 638,523 L 638,522 L 639,521 L 639,520 L 640,519 L 640,509 L 639,508 L 639,507 L 638,506 L 638,505 L 635,502 L 634,502 L 633,501 L 625,501 L 624,502 L 621,502 L 620,503 L 617,503 L 616,504 L 613,504 L 612,505 L 609,505 L 608,506 L 605,506 L 604,507 L 601,507 L 600,508 L 597,508 L 596,509 L 593,509 L 592,510 L 589,510 L 588,511 L 585,511 L 584,512 L 581,512 L 580,513 L 577,513 L 576,514 L 573,514 L 572,515 L 570,515 L 569,516 L 566,516 L 565,515 L 569,511 L 570,511 L 579,502 L 580,502 L 591,491 L 592,491 L 595,488 L 598,488 L 599,487 L 601,487 L 602,486 L 605,486 L 606,485 L 608,485 L 609,484 L 611,484 L 612,483 L 615,483 L 616,482 L 618,482 L 619,481 L 622,481 L 623,480 L 625,480 L 626,479 L 629,479 L 630,478 L 632,478 L 633,477 L 635,477 L 636,476 L 639,476 L 640,475 L 642,475 L 643,474 L 646,474 L 647,473 L 649,473 L 650,472 L 653,472 L 654,471 L 656,471 L 657,470 L 660,470 L 661,469 L 663,469 L 664,468 L 667,468 L 668,467 L 670,467 L 671,466 L 673,466 L 674,465 L 677,465 L 678,464 L 680,464 L 681,463 L 684,463 L 685,462 L 687,462 L 688,461 L 691,461 L 692,460 L 694,460 L 695,459 L 698,459 L 699,458 L 701,458 L 702,457 L 705,457 L 706,456 L 708,456 L 709,455 L 711,455 L 712,454 L 715,454 L 716,453 L 718,453 L 719,452 L 722,452 L 723,451 L 725,451 L 726,450 L 729,450 L 730,449 L 732,449 L 733,448 L 736,448 L 737,447 L 739,447 L 740,446 L 743,446 L 744,445 L 746,445 L 747,444 L 750,444 L 751,443 L 753,443 L 754,442 L 757,442 L 758,441 L 760,441 L 761,440 L 763,440 L 764,439 L 766,439 L 767,438 L 770,438 L 771,437 L 773,437 L 774,436 L 776,436 L 777,435 L 779,435 L 780,434 L 782,434 L 783,433 L 784,433 L 785,432 L 787,432 L 788,431 L 790,431 L 791,430 L 793,430 L 794,429 L 796,429 L 797,428 L 798,428 L 799,427 L 801,427 L 802,426 L 804,426 L 805,425 L 807,425 L 808,424 L 809,424 L 810,423 L 812,423 L 813,422 L 814,422 L 815,421 L 817,421 L 818,420 L 819,420 L 820,419 L 822,419 L 823,418 L 824,418 L 825,417 L 826,417 L 827,416 L 828,416 L 829,415 L 831,415 L 832,414 L 833,414 L 834,413 L 835,413 L 836,412 L 837,412 L 838,411 L 839,411 L 840,410 L 841,410 L 842,409 L 843,409 L 844,408 L 845,408 L 846,407 L 847,407 L 848,406 L 849,406 L 850,405 L 851,405 L 853,403 L 854,403 L 855,402 L 856,402 L 857,401 L 858,401 L 860,399 L 861,399 L 862,398 L 863,398 L 865,396 L 866,396 L 868,394 L 869,394 L 871,392 L 872,392 L 874,390 L 875,390 L 877,388 L 878,388 L 880,386 L 881,386 L 884,383 L 885,383 L 889,379 L 890,379 L 901,368 L 901,367 L 903,365 L 903,364 L 905,362 L 905,360 L 906,359 L 906,358 L 907,357 L 907,354 L 908,353 L 908,347 L 907,346 L 907,344 L 906,343 L 906,342 L 905,341 L 905,340 L 904,339 L 904,338 L 894,328 L 893,328 L 890,325 L 889,325 L 888,324 L 887,324 L 885,322 L 884,322 L 883,321 L 882,321 L 881,320 L 880,320 L 879,319 L 878,319 L 877,318 L 876,318 L 875,317 L 874,317 L 873,316 L 872,316 L 871,315 L 870,315 L 869,314 L 868,314 L 867,313 L 865,313 L 864,312 L 863,312 L 862,311 L 860,311 L 859,310 L 858,310 L 857,309 L 855,309 L 854,308 L 853,308 L 852,307 L 850,307 L 849,306 L 847,306 L 846,305 L 845,305 L 844,304 L 842,304 L 841,303 L 839,303 L 838,302 L 836,302 L 835,301 L 833,301 L 832,300 L 830,300 L 829,299 L 827,299 L 826,298 L 824,298 L 823,297 L 820,297 L 819,296 L 817,296 L 816,295 L 813,295 L 812,294 L 808,294 L 807,293 L 804,293 L 803,292 L 799,292 L 798,291 L 793,291 L 792,290 L 785,290 L 784,289 L 770,289 L 769,288 L 755,288 L 754,289 L 742,289 L 741,290 L 734,290 L 733,291 L 728,291 L 727,292 L 724,292 L 723,293 L 719,293 L 718,294 L 716,294 L 715,295 L 712,295 L 711,296 L 709,296 L 708,297 L 705,297 L 704,298 L 702,298 L 701,299 L 699,299 L 698,300 L 697,300 L 696,301 L 694,301 L 693,302 L 691,302 L 690,303 L 689,303 L 688,304 L 686,304 L 685,305 L 684,305 L 683,306 L 681,306 L 680,307 L 678,307 L 677,308 L 676,308 L 675,309 L 673,309 L 672,310 L 671,310 L 670,311 L 668,311 L 667,312 L 665,312 L 664,313 L 663,313 L 662,314 L 660,314 L 659,315 L 658,315 L 657,316 L 655,316 L 654,317 L 652,317 L 651,318 L 650,318 L 649,319 L 647,319 L 646,320 L 645,320 L 644,321 L 642,321 L 641,322 L 640,322 L 639,323 L 637,323 L 636,324 L 634,324 L 633,325 L 632,325 L 631,326 L 629,326 L 628,327 L 627,327 L 626,328 L 624,328 L 623,329 L 622,329 L 621,330 L 619,330 L 618,331 L 616,331 L 615,332 L 614,332 L 613,333 L 611,333 L 610,334 L 609,334 L 608,335 L 606,335 L 605,336 L 603,336 L 602,337 L 601,337 L 600,338 L 598,338 L 597,339 L 596,339 L 595,340 L 593,340 L 592,341 L 590,341 L 589,342 L 588,342 L 587,343 L 585,343 L 584,344 L 583,344 L 582,345 L 580,345 L 579,346 L 577,346 L 576,347 L 575,347 L 574,348 L 572,348 L 571,349 L 570,349 L 569,350 L 567,350 L 566,351 L 565,351 L 564,352 L 562,352 L 561,353 L 559,353 L 558,354 L 557,354 L 556,355 L 554,355 L 553,356 L 552,356 L 551,357 L 549,357 L 548,358 L 547,358 L 546,359 L 544,359 L 543,360 L 541,360 L 540,361 L 539,361 L 538,362 L 536,362 L 535,363 L 534,363 L 533,364 L 531,364 L 530,365 L 528,365 L 527,366 L 526,366 L 525,367 L 523,367 L 522,368 L 521,368 L 520,369 L 518,369 L 517,370 L 514,370 L 513,371 L 503,371 L 502,370 L 500,370 L 499,369 L 497,369 L 496,368 L 494,368 L 493,367 L 491,367 L 490,366 L 489,366 L 488,365 L 486,365 L 485,364 L 483,364 L 482,363 L 480,363 L 479,362 L 478,362 L 477,361 L 475,361 L 474,360 L 472,360 L 471,359 L 469,359 L 468,358 L 467,358 L 466,357 L 464,357 L 463,356 L 461,356 L 460,355 L 458,355 L 457,354 L 455,354 L 454,353 L 453,353 L 452,352 L 450,352 L 449,351 L 447,351 L 446,350 L 444,350 L 443,349 L 442,349 L 441,348 L 439,348 L 438,347 L 436,347 L 435,346 L 433,346 L 432,345 L 431,345 L 430,344 L 428,344 L 427,343 L 425,343 L 424,342 L 422,342 L 421,341 L 420,341 L 419,340 L 417,340 L 416,339 L 414,339 L 413,338 L 411,338 L 410,337 L 408,337 L 407,336 L 406,336 L 405,335 L 403,335 L 402,334 L 400,334 L 399,333 L 398,333 L 397,332 L 395,332 L 394,331 L 392,331 L 391,330 L 389,330 L 388,329 L 386,329 L 385,328 L 384,328 L 383,327 L 381,327 L 380,326 L 378,326 L 377,325 L 376,325 L 375,324 L 373,324 L 372,323 L 370,323 L 369,322 L 367,322 L 366,321 L 365,321 L 364,320 L 362,320 L 361,319 L 359,319 L 358,318 L 356,318 L 355,317 L 354,317 L 353,316 L 351,316 L 350,315 L 348,315 L 347,314 L 345,314 L 344,313 L 343,313 L 342,312 L 340,312 L 339,311 L 337,311 L 336,310 L 334,310 L 333,309 L 332,309 L 331,308 L 329,308 L 328,307 L 326,307 L 325,306 L 323,306 L 322,305 L 321,305 L 320,304 L 318,304 L 317,303 L 315,303 L 314,302 L 313,302 L 312,301 L 310,301 L 309,300 L 307,300 L 306,299 L 304,299 L 303,298 L 302,298 L 301,297 L 299,297 L 298,296 L 296,296 L 295,295 L 293,295 L 292,294 L 290,294 L 289,293 L 288,293 L 287,292 L 285,292 L 284,291 L 282,291 L 281,290 L 279,290 L 278,289 L 277,289 L 276,288 L 274,288 L 273,287 L 271,287 L 270,286 L 268,286 L 267,285 L 266,285 L 265,284 L 263,284 L 262,283 L 260,283 L 259,282 L 257,282 L 256,281 L 254,281 L 253,280 L 252,280 L 251,279 L 248,279 L 247,278 L 243,278 L 242,277 Z" fill="currentColor" /></svg>