<svg xmlns="http://www.w3.org/2000/svg" width="2088" height="2088"><circle cx="1044.5" cy="1043.5" r="1012.5" data-name="Эллипс 1" style="fill:#ffb200"/><path d="M1044.5 131.712c503.76 0 912.14 408.381 912.14 912.148S1548.26 1956 1044.5 1956s-912.144-408.38-912.144-912.14S540.737 131.712 1044.5 131.712Z" data-name="Эллипс 1 копия" style="fill-rule:evenodd;fill:none;stroke:#fff;stroke-width:97.47px"/><path d="M280.285 895.164c101.409 41.56 198.557 86.457 292.681 135.366 43.661 22.69 90.346 48.18 136.28 74.08 35.225 19.87 94.817 54.52 142.682 82.32 65.318 37.95 121.512 69.12 186.582 96.95 32.52 13.91 75.23 29.8 116.16 43.9 45.69 15.75 97.06 31.37 149.08 45.74 36.33 10.03 111.69 30.94 125.31 33.84 9.27 1.97 34.14 8.39 53.05 15.55 7.49 2.83 14.72 5.84 21.95 9.14l75.91-74.08a406.425 406.425 0 0 1-44.81 2.74 390.625 390.625 0 0 1-56.71-3.66 401.948 401.948 0 0 1-57.62-12.8c-35.24-10.31-66.8-16.44-101.53-28.36-37.13-12.74-72.81-27.39-97.86-41.15a493.3 493.3 0 0 1-117.99-90.55c99.01-47.08 204.36-74.09 312.8-85.06a940.27 940.27 0 0 1 189.33 0c10.98-14.33 21.95-31.41 32.93-45.73q-94.6-6.105-189.33-2.75a1891.63 1891.63 0 0 0-170.12 13.72q7.77-14.64 15.55-29.27c61.53-5.8 122.06-9.41 183.84-10.97 62.89-1.59 124.65-.99 187.5 1.83q12.795-19.665 25.61-39.333c-31.56-1.2-62.63-2.1-94.21-2.744-95.2-1.927-188.32-1.326-283.53 1.83q10.965-16.464 21.95-32.927c68.01-3.72 134.95-4.926 203.04-3.659a2753.9 2753.9 0 0 1 179.27 9.147q14.175-20.58 28.36-41.159c-60.4-5.158-119.6-8.464-180.19-10.061a3048.052 3048.052 0 0 0-214.02 1.83q7.32-13.263 14.63-26.525a2123.274 2123.274 0 0 1 213.11-6.4 2120.205 2120.205 0 0 1 193.9 12.8q16.92-16.921 33.85-33.841c-73.49-8.886-146.84-16.706-222.26-23.781-94.59-8.872-173.38-13.254-272.56-2.744a1173.163 1173.163 0 0 0-149.08 25.61c-34.9 85.081-97.81 155.644-182.015 192.074a326.868 326.868 0 0 1-128.048 26.52 445.772 445.772 0 0 1-165.548-48.47 438.4 438.4 0 0 1-71.341-46.649 18.782 18.782 0 0 1 15.549-27.439Q725.709 988.913 819 1027.79q7.774-8.7 15.549-17.38l-393.29-170.124q-12.8 24.7-25.609 49.39l-125.3-35.67q-5.034 20.579-10.065 41.158Z" data-name="Фигура 1" style="fill:#fff;fill-rule:evenodd"/></svg>